{
	"asset":{
		"generator":"Khronos glTF Blender I/O v3.5.30",
		"version":"2.0"
	},
	"scene":0,
	"scenes":[
		{
			"name":"Scene",
			"nodes":[
				0
			]
		}
	],
	"nodes":[
		{
			"mesh":0,
			"name":"Cube"
		}
	],
	"materials":[
		{
			"alphaMode":"BLEND",
			"doubleSided":true,
			"name":"Pociag_1_TEX",
			"pbrMetallicRoughness":{
				"baseColorTexture":{
					"index":0
				},
				"metallicFactor":0,
				"roughnessFactor":0.5
			}
		}
	],
	"meshes":[
		{
			"name":"Cube.001",
			"primitives":[
				{
					"attributes":{
						"POSITION":0,
						"TEXCOORD_0":1,
						"NORMAL":2
					},
					"indices":3,
					"material":0
				}
			]
		}
	],
	"textures":[
		{
			"sampler":0,
			"source":0
		}
	],
	"images":[
		{
			"mimeType":"image/png",
			"name":"pociag_color_palette",
			"uri":"pociag_color_palette.png"
		}
	],
	"accessors":[
		{
			"bufferView":0,
			"componentType":5126,
			"count":7593,
			"max":[
				0.8735030293464661,
				2.555962085723877,
				2.9273383617401123
			],
			"min":[
				-0.8735030293464661,
				0.0647284984588623,
				-2.636859178543091
			],
			"type":"VEC3"
		},
		{
			"bufferView":1,
			"componentType":5126,
			"count":7593,
			"type":"VEC2"
		},
		{
			"bufferView":2,
			"componentType":5126,
			"count":7593,
			"type":"VEC3"
		},
		{
			"bufferView":3,
			"componentType":5123,
			"count":19176,
			"type":"SCALAR"
		}
	],
	"bufferViews":[
		{
			"buffer":0,
			"byteLength":91116,
			"byteOffset":0,
			"target":34962
		},
		{
			"buffer":0,
			"byteLength":60744,
			"byteOffset":91116,
			"target":34962
		},
		{
			"buffer":0,
			"byteLength":91116,
			"byteOffset":151860,
			"target":34962
		},
		{
			"buffer":0,
			"byteLength":38352,
			"byteOffset":242976,
			"target":34963
		}
	],
	"samplers":[
		{
			"magFilter":9728,
			"minFilter":9984,
			"wrapS":33648,
			"wrapT":33648
		}
	],
	"buffers":[
		{
			"byteLength":281328,
			"uri":"mdl_train.bin"
		}
	]
}
