{
	"asset":{
		"generator":"Khronos glTF Blender I/O v3.5.30",
		"version":"2.0"
	},
	"scene":0,
	"scenes":[
		{
			"name":"Scene",
			"nodes":[
				0
			]
		}
	],
	"nodes":[
		{
			"mesh":0,
			"name":"Plane.001"
		}
	],
	"materials":[
		{
			"doubleSided":true,
			"name":"Material.003",
			"pbrMetallicRoughness":{
				"baseColorTexture":{
					"index":0
				},
				"metallicFactor":0,
				"roughnessFactor":0.5
			}
		}
	],
	"meshes":[
		{
			"name":"Plane.002",
			"primitives":[
				{
					"attributes":{
						"POSITION":0,
						"TEXCOORD_0":1,
						"NORMAL":2
					},
					"indices":3,
					"material":0
				}
			]
		}
	],
	"textures":[
		{
			"sampler":0,
			"source":0
		}
	],
	"images":[
		{
			"mimeType":"image/png",
			"name":"color_palette_desert",
			"uri":"color_palette_desert.png"
		}
	],
	"accessors":[
		{
			"bufferView":0,
			"componentType":5126,
			"count":7776,
			"max":[
				30.398176193237305,
				4.972474575042725,
				36.49467849731445
			],
			"min":[
				-29.601821899414062,
				-7.416482448577881,
				-35.506717681884766
			],
			"type":"VEC3"
		},
		{
			"bufferView":1,
			"componentType":5126,
			"count":7776,
			"type":"VEC2"
		},
		{
			"bufferView":2,
			"componentType":5126,
			"count":7776,
			"type":"VEC3"
		},
		{
			"bufferView":3,
			"componentType":5123,
			"count":9702,
			"type":"SCALAR"
		}
	],
	"bufferViews":[
		{
			"buffer":0,
			"byteLength":93312,
			"byteOffset":0,
			"target":34962
		},
		{
			"buffer":0,
			"byteLength":62208,
			"byteOffset":93312,
			"target":34962
		},
		{
			"buffer":0,
			"byteLength":93312,
			"byteOffset":155520,
			"target":34962
		},
		{
			"buffer":0,
			"byteLength":19404,
			"byteOffset":248832,
			"target":34963
		}
	],
	"samplers":[
		{
			"magFilter":9728,
			"minFilter":9984
		}
	],
	"buffers":[
		{
			"byteLength":268236,
			"uri":"mdl_desert.bin"
		}
	]
}
